*******************************************************************************
                           Resolution (2012) WEBRip
*******************************************************************************

-------------------------------------------------------------------------------
                              General Information
-------------------------------------------------------------------------------
Type.................: Movie



Video Format.........: AVI
Video Bitrate........: 1611
Resolution...........: 640 x 360
Color................: 8 bit
FPS..................: 29.970
Source...............: WEB 16:9
Original Format......: NTSC
Genre................: Horror / Mystery / Thriller
IMDb Rating..........: 6.8
Movie Information....: http://www.imdb.com/title/tt1977895/

-------------------------------------------------------------------------------
                               Post Information
-------------------------------------------------------------------------------
Posted by............: RadioResearch
Posted on............: 4/9/2013

-------------------------------------------------------------------------------
                                 Release Notes
-------------------------------------------------------------------------------
SEEDBOX SUPPORTED!!

Michael (Peter Cilella) is committed to getting his best friend Chris (Vinny 
Curran) to sober up and get his life back on track. But what begins as an 
attempt to save his friend's life quickly takes an unexpected turn as the two 
friends confront personal demons, the consequences of past actions, and forces 
beyond their control. Expertly balancing dark humor with genuine thrills and 
unexpected pathos, Resolution is an utterly unique cinematic experience that 
defies genre classification.

(This isn't due for release until June.  You got it here first.)

Enjoy!

RadioResearch

General
Complete name                            : G:Resolution (2012) WEBRip
Resolution.avi
Format                                   : AVI
Format/Info                              : Audio Video Interleave
File size                                : 1.05 GiB
Duration                                 : 1h 33mn
Overall bit rate                         : 1 611 Kbps

Video
ID                                       : 0
Format                                   : MPEG-4 Visual
Format profile                           : Simple@L3
Format settings, BVOP                    : No
Format settings, QPel                    : No
Format settings, GMC                     : No warppoints
Format settings, Matrix                  : Default (H.263)
Codec ID                                 : XVID
Codec ID/Hint                            : XviD
Duration                                 : 1h 33mn
Bit rate                                 : 1 469 Kbps
Width                                    : 640 pixels
Height                                   : 360 pixels
Display aspect ratio                     : 16:9
Frame rate                               : 29.970 fps
Original frame rate                      : 29.000 fps
Color space                              : YUV
Chroma subsampling                       : 4:2:0
Bit depth                                : 8 bits
Scan type                                : Progressive
Compression mode                         : Lossy
Bits/(Pixel*Frame)                       : 0.213
Stream size                              : 978 MiB (91%)
Writing library                          : XviD 1.2.1 (UTC 2008-12-04)

Audio
ID                                       : 1
Format                                   : MPEG Audio
Format version                           : Version 1
Format profile                           : Layer 3
Mode                                     : Joint stereo
Mode extension                           : MS Stereo
Codec ID                                 : 55
Codec ID/Hint                            : MP3
Duration                                 : 1h 33mn
Bit rate mode                            : Constant
Bit rate                                 : 128 Kbps
Channel(s)                               : 2 channels
Sampling rate                            : 44.1 KHz
Compression mode                         : Lossy
Stream size                              : 85.2 MiB (8%)
Alignment                                : Aligned on interleaves
Interleave, duration                     : 26 ms (0.78 video frame)
Writing library                          : LAME3.98.2




-------------------------------------------------------------------------------
Generated with Cool NFO Creator - http://fly.to/coolbeans
-------------------------------------------------------------------------------
